<svg xmlns="http://www.w3.org/2000/svg" width="16" height="20" viewBox="0 0 16 20">
    <g fill="none" fill-rule="evenodd">
        <path d="M-2 0h19v20H-2z"/>
        <path fill="#FFF" d="M8 9.286c-3.04 0-6.16-.667-8-2.286v4.19C0 13.762 4.16 15 8 15s8-1.238 8-3.81V7c-1.84 1.619-4.96 2.286-8 2.286z"/>
        <path fill="#111" d="M8 14.286c-3.04 0-6.16-.667-8-2.286v4.19C0 18.762 4.16 20 8 20s8-1.238 8-3.81V12c-1.84 1.619-4.96 2.286-8 2.286zM8 0C4.16 0 0 1.137 0 3.5 0 5.862 4.16 7 8 7s8-1.138 8-3.5S11.84 0 8 0z"/>
    </g>
</svg>
