<svg xmlns="http://www.w3.org/2000/svg" width="24" height="26" viewBox="0 0 24 26">
    <g fill="none" fill-rule="evenodd">
        <path fill="#0780E4" d="M22.435 14.565H1.565L0 12.478l2.087-2.087h19.826L24 12.478z"/>
        <path fill="#FFF" stroke="#4A4A4A" stroke-width=".75" d="M20.87 25H3.13a1.043 1.043 0 0 1-1.043-1.043V2.043C2.087 1.467 2.554 1 3.13 1h12.522l6.261 6.26v16.697c0 .576-.467 1.043-1.043 1.043z"/>
        <path fill="#9B9B9B" d="M15.652 1v6.26h6.261z"/>
        <path fill="#42A5F5" d="M22.957 21.87H1.043A1.043 1.043 0 0 1 0 20.826v-8.348h24v8.348c0 .577-.467 1.044-1.043 1.044z"/>
        <g fill="#FFF">
            <path d="M18.547 15h1.015l-1.135 1.974 1.165 2.007h-1.026l-.719-1.361-.722 1.361H16.1l1.168-2.007L16.13 15h1.015l.702 1.337z"/>
            <path fill-rule="nonzero" d="M11.382 17.094c0 .4-.072.747-.217 1.042a1.605 1.605 0 0 1-.606.68 1.672 1.672 0 0 1-.891.239c-.337 0-.636-.08-.896-.238a1.602 1.602 0 0 1-.607-.681 2.34 2.34 0 0 1-.217-1.042v-.167c0-.399.072-.747.216-1.043.144-.296.346-.523.604-.682.26-.159.557-.238.894-.238.336 0 .634.08.895.238.26.159.463.386.608.682.145.296.217.644.217 1.043v.167zm-.9-.172c0-.398-.07-.701-.212-.912a.69.69 0 0 0-.607-.316.685.685 0 0 0-.609.315c-.14.21-.21.514-.21.913v.172c0 .398.072.702.214.915a.69.69 0 0 0 .61.318c.26 0 .462-.106.603-.32.141-.213.212-.517.212-.913v-.172zm4.92.735c-.017.278-.092.521-.225.732-.133.21-.32.374-.56.49a1.9 1.9 0 0 1-.84.176c-.343 0-.639-.078-.889-.234a1.505 1.505 0 0 1-.574-.669c-.133-.29-.2-.632-.2-1.028v-.23c0-.391.069-.733.206-1.025.136-.292.33-.516.58-.673.251-.156.543-.235.877-.235.33 0 .612.06.848.182.235.121.418.29.548.503.13.214.208.461.234.74h-.886c-.015-.237-.079-.412-.192-.526-.113-.114-.297-.171-.552-.171-.26 0-.453.095-.577.287-.124.191-.186.496-.186.913v.235c0 .285.025.514.075.69.05.174.131.304.242.388.111.083.26.125.446.125.239 0 .418-.054.537-.164.12-.11.187-.278.201-.506h.886zM7.178 16.962c0 .684-.188 1.21-.565 1.58-.376.37-.905.555-1.587.555H3.7V15h1.418c.657 0 1.165.168 1.523.505.358.336.537.821.537 1.457zM6.029 17c0-.376-.074-.654-.223-.835-.148-.182-.374-.272-.676-.272h-.323v2.294h.247c.336 0 .583-.098.74-.293.157-.195.235-.492.235-.894z"/>
        </g>
    </g>
</svg>
