<svg xmlns="http://www.w3.org/2000/svg" width="24" height="26" viewBox="0 0 24 26">
    <g fill="none" fill-rule="evenodd">
        <path fill="#870000" d="M22.435 14.565H1.565L0 12.478l2.087-2.087h19.826L24 12.478z"/>
        <path fill="#FFF" stroke="#4A4A4A" stroke-width=".75" d="M20.87 25H3.13a1.043 1.043 0 0 1-1.043-1.043V2.043C2.087 1.467 2.554 1 3.13 1h12.522l6.261 6.26v16.697c0 .576-.467 1.043-1.043 1.043z"/>
        <path fill="#9B9B9B" d="M15.652 1v6.26h6.261z"/>
        <path fill="#BD0100" d="M22.957 21.87H1.043A1.043 1.043 0 0 1 0 20.826v-8.348h24v8.348c0 .577-.467 1.044-1.043 1.044z"/>
        <path fill="#FFF" fill-rule="nonzero" d="M9.95 16.467c0 .458-.135.812-.405 1.06-.27.25-.653.375-1.15.375h-.311v1.359H6.977v-4.097h1.418c.517 0 .906.113 1.165.338.26.227.39.549.39.965zM8.084 17h.202a.55.55 0 0 0 .396-.141.508.508 0 0 0 .147-.386c0-.277-.152-.415-.46-.415h-.285V17zM14.08 17.125c0 .684-.188 1.21-.564 1.58-.377.371-.906.556-1.587.556h-1.326v-4.097h1.418c.657 0 1.165.168 1.523.504.358.337.537.822.537 1.457zm-1.148.04c0-.376-.074-.654-.223-.836-.148-.181-.374-.272-.677-.272h-.322v2.295h.247c.336 0 .582-.098.74-.293.157-.195.235-.493.235-.894z"/>
        <path fill="#FFF" d="M15.905 19.26h-1.09v-4.096h2.421v.888h-1.33v.782h1.227v.888h-1.228v1.539z"/>
    </g>
</svg>
