<svg xmlns="http://www.w3.org/2000/svg" width="24" height="26" viewBox="0 0 24 26">
    <g fill="none" fill-rule="evenodd">
        <path fill="#7B0046" d="M22.435 14.565H1.565L0 12.478l2.087-2.087h19.826L24 12.478z"/>
        <path fill="#FFF" stroke="#4A4A4A" stroke-width=".75" d="M20.87 25H3.13a1.043 1.043 0 0 1-1.043-1.043V2.043C2.087 1.467 2.554 1 3.13 1h12.522l6.261 6.26v16.697c0 .576-.467 1.043-1.043 1.043z"/>
        <path fill="#9B9B9B" d="M15.652 1v6.26h6.261z"/>
        <path fill="#C53687" d="M22.957 21.871H1.043A1.043 1.043 0 0 1 0 20.828V12.48h24v8.348c0 .576-.467 1.043-1.043 1.043z"/>
        <path fill="#FFF" fill-rule="nonzero" d="M8.688 15.16h1.015l-1.135 1.974 1.165 2.007H8.708l-.72-1.361-.721 1.361H6.24l1.168-2.007L6.27 15.16h1.015l.702 1.337.7-1.337zm4.985 1.276c0 .447-.135.793-.404 1.036-.27.244-.654.365-1.15.365h-.312v1.327H10.7v-4h1.418c.518 0 .906.11 1.166.33.26.221.39.536.39.942zM11.807 17h.202a.55.55 0 0 0 .397-.141.508.508 0 0 0 .147-.386c0-.277-.153-.415-.46-.415h-.286V17zm5.58-1.124h-1.205v3.265h-.889v-3.265h-1.187v-.716h3.282v.716z"/>
    </g>
</svg>
