<svg xmlns="http://www.w3.org/2000/svg" width="16" height="16" viewBox="0 0 16 16">
    <g fill="none" fill-rule="evenodd">
        <path d="M-4-4h24v24H-4z"/>
        <path fill="#42A5F5" fill-rule="nonzero" d="M14.693.725H1.656c-.559 0-.931.372-.931.931V3.52c0 .279.093.558.372.744L6.312 8.64v6.053c0 .373.186.745.559.838.093.093.28.093.372.093.28 0 .466-.093.652-.279l1.863-1.862a.845.845 0 0 0 .279-.652V8.64l5.215-4.378c.28-.186.372-.465.372-.744V1.656c0-.559-.372-.931-.93-.931z"/>
    </g>
</svg>
