<svg xmlns="http://www.w3.org/2000/svg" width="24" height="20" viewBox="0 0 24 20">
    <g fill="none" fill-rule="evenodd">
        <path d="M0-2h24v24H0z"/>
        <path fill="#FFF" d="M9.5 9c.6 0 1.2.3 1.6.8l2.4 3.2H22V7c0-.6-.4-1-1-1H3c-.6 0-1 .4-1 1v2h7.5z"/>
        <path fill="#F5C842" d="M23 4.21H12.5L9.8.422C9.6.105 9.3 0 9 0H1C.4 0 0 .421 0 1.053v17.894C0 19.58.4 20 1 20h22c.6 0 1-.421 1-1.053V5.263c0-.631-.4-1.052-1-1.052z"/>
        <g>
            <path fill="#F54242" d="M18 7.5a.5.5 0 0 0-.5-.5H11v5H6v3.5a.5.5 0 0 0 .5.5h11a.5.5 0 0 0 .5-.5v-8z"/>
            <path fill="#E6E6E6" d="M11 8h7v1h-7zM11 10h7v1h-7zM6 12v1h12v-1h-7zM6 14h12v1H6z"/>
            <path fill="#00256A" d="M11 12H6V7.5a.5.5 0 0 1 .5-.5H11v5z"/>
            <path fill="#FFF" d="M8.5 8.98l-.158.342h-.376l.275.286-.102.411.361-.204.36.205-.1-.412.274-.285h-.376zM7.277 7.757l-.158.342h-.376l.274.285-.101.412.36-.204.362.204-.102-.412.275-.285h-.376zM9.723 7.757l.158.342h.376l-.275.285.102.412-.36-.204-.362.204.102-.412-.275-.285h.376zM7.277 11.243l-.158-.342h-.376l.274-.285-.101-.412.36.204.362-.204-.102.412.275.285h-.376zM9.723 11.243l.158-.342h.376l-.275-.285.102-.412-.36.204-.362-.204.102.412-.275.285h.376z"/>
        </g>
    </g>
</svg>
