<svg xmlns="http://www.w3.org/2000/svg" width="24" height="25" viewBox="0 0 24 25">
    <g fill="#7F7F7F" fill-rule="evenodd">
        <path fill-rule="nonzero" d="M12 0C5.383 0 0 5.168 0 11.52c0 6.352 5.383 11.52 12 11.52s12-5.168 12-11.52C24 5.168 18.617 0 12 0zm8.572 16.278h-3.147c.33-1.293.526-2.729.562-4.257h3.9a9.163 9.163 0 0 1-1.315 4.257zm-6.86 4.607c-.39.065-.787.106-1.19.126V17.28h3.499c-.576 1.618-1.381 2.888-2.31 3.605zM7.978 17.28h3.5v3.731c-.404-.02-.801-.061-1.19-.127-.929-.716-1.734-1.986-2.31-3.604zm-5.865-5.26h3.9a19.1 19.1 0 0 0 .562 4.258H3.428a9.157 9.157 0 0 1-1.314-4.257zm1.314-5.258h3.147a19.13 19.13 0 0 0-.562 4.257h-3.9a9.157 9.157 0 0 1 1.315-4.257zm6.86-4.607c.39-.065.787-.106 1.19-.126V5.76H7.98c.576-1.618 1.381-2.888 2.31-3.605zm5.733 3.605h-3.5V2.029c.404.02.801.061 1.19.127.929.716 1.734 1.986 2.31 3.604zm.318 1.002c.354 1.284.565 2.733.604 4.257h-4.421V6.762h3.817zm-4.86 0v4.257H7.056c.04-1.524.25-2.973.604-4.257h3.817zM7.056 12.02h4.421v4.257H7.661c-.354-1.284-.565-2.733-.604-4.257zm5.465 4.257v-4.257h4.421c-.04 1.524-.25 2.973-.604 4.257h-3.817zm5.464-5.259a19.1 19.1 0 0 0-.562-4.257h3.147a9.169 9.169 0 0 1 1.315 4.257h-3.9zm1.887-5.259h-2.74c-.397-1.21-.917-2.26-1.533-3.097a9.92 9.92 0 0 1 4.273 3.097zM8.4 2.663C7.784 3.5 7.264 4.549 6.867 5.76h-2.74A9.92 9.92 0 0 1 8.4 2.663zM4.127 17.28h2.74c.397 1.21.917 2.26 1.533 3.097a9.92 9.92 0 0 1-4.273-3.097zM15.6 20.377c.616-.837 1.136-1.886 1.533-3.097h2.74a9.92 9.92 0 0 1-4.273 3.097z"/>
        <g stroke="#FFF">
            <path d="M8 9.1c2.208 0 4 1.72 4 3.86 0 2.14-1.792 3.86-4 3.86s-4-1.72-4-3.86C4 10.82 5.792 9.1 8 9.1zM15.5 23.54H.5v-2.068C.5 19.157 4.608 17.5 8 17.5c3.392 0 7.5 1.657 7.5 3.972v2.068z"/>
        </g>
    </g>
</svg>
