<svg xmlns="http://www.w3.org/2000/svg" width="64" height="64" viewBox="0 0 64 64">
    <g fill="none" fill-rule="evenodd">
        <g>
            <g transform="translate(-264 -233) translate(264 233)">
                <rect width="64" height="64" fill-rule="nonzero" rx="1"/>
                <g transform="translate(8 9)">
                    <circle cx="24" cy="24" r="24" fill="#6EB9F7"/>
                    <g fill="#FFF" fill-rule="nonzero">
                        <path d="M17.1 9.167h-2.7V5.509C14.425 2.496 12.049.031 9.09 0h-.081C7.586-.017 6.216.544 5.201 1.56 4.186 2.573 3.609 3.96 3.6 5.408v3.758H.9c-.497 0-.9.41-.9.917v11c0 .506.403.916.9.916h16.2c.497 0 .9-.41.9-.917v-11c0-.506-.403-.916-.9-.916zM9 17.417c-.994 0-1.8-.821-1.8-1.834 0-1.012.806-1.833 1.8-1.833s1.8.82 1.8 1.833-.806 1.834-1.8 1.834zm3.6-8.25H5.4v-3.75c.023-1.986 1.612-3.584 3.563-3.583h.118c1.965.023 3.54 1.664 3.519 3.666v3.667z" transform="translate(15 11)"/>
                    </g>
                </g>
            </g>
        </g>
    </g>
</svg>
