<svg xmlns="http://www.w3.org/2000/svg" width="20" height="20" viewBox="0 0 20 20">
    <g fill="none" fill-rule="evenodd">
        <path d="M-2-2h24v24H-2z"/>
        <g fill="#111" fill-opacity=".7" fill-rule="nonzero">
            <path d="M6.667 20a.823.823 0 0 1-.484-.156L.349 15.677A.833.833 0 0 1 0 15V.833C0 .373.373 0 .833 0c.324 0 .988.52 1.097.598l5.222 3.735c.219.157.349.41.348.68v14.154a.833.833 0 0 1-.833.833zM9.167 10.833v5h2.5c.46 0 .833-.373.833-.833v-4.167H9.167zM9.167 5.013v.82H12.5v-5A.833.833 0 0 0 11.667 0H3.959l4.167 2.98a2.51 2.51 0 0 1 1.04 2.033z"/>
            <path d="M20 8.333l-5-4.166V7.5H9.167v1.667H15V12.5z"/>
        </g>
    </g>
</svg>
