<svg id="Layer_1" data-name="Layer 1" xmlns="http://www.w3.org/2000/svg" xmlns:xlink="http://www.w3.org/1999/xlink" viewBox="0 0 652 154.28"><defs><style>.cls-1{fill:url(#linear-gradient);}.cls-2{fill:#fff;}.cls-3{fill:url(#linear-gradient-2);}.cls-4{fill:url(#linear-gradient-3);}.cls-5{fill:url(#linear-gradient-4);}.cls-6{fill:url(#linear-gradient-5);}.cls-7{fill:#95cd87;}.cls-8{fill:#231f20;}</style><linearGradient id="linear-gradient" x1="109.74" y1="28.37" x2="110.1" y2="128.05" gradientUnits="userSpaceOnUse"><stop offset="0.23" stop-color="#008ac2" stop-opacity="0.75"/><stop offset="0.27" stop-color="#068cc4" stop-opacity="0.77"/><stop offset="0.59" stop-color="#2b9ad2" stop-opacity="0.89"/><stop offset="0.84" stop-color="#42a3da" stop-opacity="0.97"/><stop offset="1" stop-color="#4ba6dd"/></linearGradient><linearGradient id="linear-gradient-2" x1="121.16" y1="29.99" x2="122.9" y2="97.56" gradientUnits="userSpaceOnUse"><stop offset="0.2" stop-color="#7ad2f1" stop-opacity="0.75"/><stop offset="0.32" stop-color="#70c9ed" stop-opacity="0.8"/><stop offset="0.74" stop-color="#55afe1" stop-opacity="0.95"/><stop offset="1" stop-color="#4ba6dd"/></linearGradient><linearGradient id="linear-gradient-3" x1="181.94" y1="77.95" x2="150.3" y2="112.14" xlink:href="#linear-gradient-2"/><linearGradient id="linear-gradient-4" x1="30" y1="82.53" x2="58.42" y2="120.61" xlink:href="#linear-gradient-2"/><linearGradient id="linear-gradient-5" x1="63.95" y1="68.49" x2="91.3" y2="110.19" xlink:href="#linear-gradient-2"/></defs><title>OmniView Cloud_Final Logo_Horiz_CMYK</title><path class="cls-1" d="M46.52,128.69a24,24,0,1,1,0-48.07c.49,0,1,0,1.52.06A30.77,30.77,0,0,1,77.69,58.5c.68,0,1.38,0,2.12.08a43.3,43.3,0,0,1,85.43,5.15,32.48,32.48,0,0,1-.2,65Z"/><path class="cls-2" d="M122.13,26.36a41.39,41.39,0,0,1,41.33,39.36c.53,0,1-.08,1.58-.08a30.57,30.57,0,1,1,0,61.14H46.52a22.13,22.13,0,1,1,2.95-44A29,29,0,0,1,77.69,60.41a29.49,29.49,0,0,1,3.67.26,41.41,41.41,0,0,1,40.77-34.31m0-3.84A45.13,45.13,0,0,0,78.31,56.59h-.62a32.69,32.69,0,0,0-31,22.12h-.13a26,26,0,1,0,0,51.91H165A34.4,34.4,0,0,0,167,61.86a45.19,45.19,0,0,0-44.83-39.34Z"/><circle class="cls-3" cx="122.13" cy="67.79" r="41.43"/><circle class="cls-4" cx="165.04" cy="96.21" r="30.57"/><circle class="cls-5" cx="46.52" cy="104.66" r="22.12"/><circle class="cls-6" cx="77.69" cy="89.44" r="29.03"/><circle class="cls-2" cx="122.13" cy="82.53" r="35.09"/><path class="cls-7" d="M93.81,77a70.56,70.56,0,0,0-3.41,7.25l3.9,1.21A33,33,0,0,1,93.81,77Z"/><path class="cls-7" d="M100.88,68.14a1.48,1.48,0,0,1,1.07-.46,1.58,1.58,0,0,1,.52.09,1.5,1.5,0,0,1,1,1.32c0,.15.57,10.32,6.57,18-4.88-17.43,12.93-29.65,12.93-29.65l-9.36-1.93c-7.82,3.67-13.84,11.47-17.78,18Z"/><path class="cls-7" d="M99.16,93.89A1.48,1.48,0,0,1,100.58,92a1.56,1.56,0,0,1,.69.17,37,37,0,0,0,15.38,3.74h0A26.53,26.53,0,0,0,120,95.7C102.91,90.5,102,69.16,102,69.16l-6.58,6.92c-1,8.21,2.14,17,5.47,23.72Z"/><path class="cls-7" d="M103.47,104.68a68.62,68.62,0,0,0,4.08,6.26l3-2.62A33.59,33.59,0,0,1,103.47,104.68Z"/><path class="cls-7" d="M110.29,55.56a70.92,70.92,0,0,0-7.71,1.14l1.17,4A36.5,36.5,0,0,1,110.29,55.56Z"/><path class="cls-7" d="M139.34,60.12c-5.8-3.53-13.11-4.72-19.69-4.9l3.58.74a1.45,1.45,0,0,1,1.14,1.15,1.47,1.47,0,0,1-.61,1.51c-.5.34-8.62,6.06-11.84,15,11.92-12.37,31-4.66,31-4.66Z"/><path class="cls-7" d="M138.32,57.86c-2.37-3.17-4.16-5.1-4.16-5.1l-2.46,2.6A33.43,33.43,0,0,1,138.32,57.86Z"/><path class="cls-7" d="M142.55,64.14l1.73,4.3a1.48,1.48,0,0,1-1.38,2,1.52,1.52,0,0,1-.55-.1,37.43,37.43,0,0,0-12.58-2.27,26.76,26.76,0,0,0-7.28,1c18.24,3,21.43,24.74,21.43,24.74l5.85-7.56C149.91,78.37,146.32,70.36,142.55,64.14Z"/><path class="cls-7" d="M150.41,78.81a31.1,31.1,0,0,1,.83,7c1.73-3.51,2.63-6,2.63-6Z"/><path class="cls-7" d="M145.08,94.68a1.44,1.44,0,0,1-1.16.57,1.65,1.65,0,0,1-.38,0A1.47,1.47,0,0,1,142.46,94c-.09-.61-1.68-10.61-8.49-17.46,5.9,17.75-12.23,30.6-12.23,30.6l9.39,1.79c8.56-4.16,14.84-13.32,18.61-20.25Z"/><path class="cls-7" d="M121.47,108.58a1.47,1.47,0,0,1-.58-2.65c.47-.34,7.82-5.67,11.16-14-13.15,11.29-31.47,1.55-31.47,1.55l2.61,9.2c7.7,5.88,19,7.33,26.89,7.54Z"/><path class="cls-7" d="M131.78,110.25h0a70.83,70.83,0,0,0,7.63-.32l-.78-4.3A31.76,31.76,0,0,1,131.78,110.25Z"/><path class="cls-8" d="M622.21,37.53v1.35h-2.6v6.78H618V38.88h-2.6V37.53ZM631,45.66l-.3-4.78c0-.63,0-1.41-.06-2.27h-.09c-.2.72-.44,1.67-.68,2.42l-1.47,4.51h-1.67l-1.46-4.63c-.15-.63-.39-1.58-.57-2.3h-.09c0,.74,0,1.52-.06,2.27l-.3,4.78h-1.55l.59-8.13h2.42l1.41,4c.18.62.33,1.22.54,2.06h0c.21-.75.38-1.44.56-2l1.41-4H632l.63,8.13Z"/><path class="cls-8" d="M219.92,65.4c0-16.29,10.51-29.24,26.81-29.24,16.52,0,26.92,13,26.92,29.24s-10.4,29.35-26.92,29.35C230.43,94.75,219.92,81.69,219.92,65.4Zm47.26,0c0-12.36-7.28-23.8-20.45-23.8-12.95,0-20.34,11.44-20.34,23.8s7.39,23.92,20.34,23.92C259.9,89.32,267.18,77.88,267.18,65.4Z"/><path class="cls-8" d="M353,93.37V54.31c0-7.86-3.35-12.71-11.21-12.71-6,0-12.83,4.39-15.95,9.47v42.3h-6.12V54.31c0-7.86-3.24-12.71-11.21-12.71-5.9,0-12.6,4.5-16,9.59V93.37h-6V37.55h6V46c2.31-3.59,9.94-9.83,18-9.83,8.66,0,13.29,5.09,14.67,10.52,3.12-5.2,10.63-10.52,18.49-10.52,10.29,0,15.26,5.78,15.26,17V93.37Z"/><path class="cls-8" d="M412.7,93.37V55.58c0-10.75-5.43-14-13.52-14-7.16,0-14.56,4.5-18.14,9.59V93.37h-6V37.55h6V46c4-4.86,12-9.83,20.11-9.83,11.32,0,17.56,5.55,17.56,18.15V93.37Z"/><path class="cls-8" d="M434.48,93.37V37.55h6V93.37Z"/><path class="cls-8" d="M465.71,93.37l-16.56-55.5h10l12.15,44.6,12.06-44.6h10l-16.56,55.5Z"/><path class="cls-8" d="M497.94,93.37V37.87h9.24v55.5Z"/><path class="cls-8" d="M516.63,93.37V37.87H547v8.07H525.86V61h20.56v8.15H525.86V85.21H547v8.16Z"/><path class="cls-8" d="M589.2,93.37l-8-39.86-7.91,39.86h-9.65L551.1,37.87H561l8,41.43,8.57-41.43H585l8.65,41.43,7.91-41.43h9.9l-12.57,55.5Z"/><path class="cls-8" d="M514.8,122.09a.38.38,0,0,1,.3.13l.7.75a11.2,11.2,0,0,1-1.68,1.47,10.65,10.65,0,0,1-2,1.12,11.83,11.83,0,0,1-2.36.72,14.58,14.58,0,0,1-2.82.25,12,12,0,0,1-4.71-.9,10.45,10.45,0,0,1-3.67-2.55,11.69,11.69,0,0,1-2.39-4,15.11,15.11,0,0,1-.85-5.21,14.33,14.33,0,0,1,.88-5.14,11.61,11.61,0,0,1,2.48-4,11.23,11.23,0,0,1,3.83-2.59,12.79,12.79,0,0,1,4.92-.91,13.47,13.47,0,0,1,2.46.2A11,11,0,0,1,512,102a10.8,10.8,0,0,1,1.82.94,13.94,13.94,0,0,1,1.68,1.29L515,105a.49.49,0,0,1-.44.21.71.71,0,0,1-.4-.19l-.62-.45c-.25-.18-.55-.38-.91-.59a7.05,7.05,0,0,0-1.26-.6,10.68,10.68,0,0,0-1.7-.45,11.87,11.87,0,0,0-2.18-.19,10.76,10.76,0,0,0-4.15.78,9.41,9.41,0,0,0-3.25,2.22,10.32,10.32,0,0,0-2.12,3.5,13.09,13.09,0,0,0-.76,4.6,13.6,13.6,0,0,0,.75,4.68,10.16,10.16,0,0,0,2.08,3.49,8.92,8.92,0,0,0,3.14,2.18,9.93,9.93,0,0,0,3.92.76,14,14,0,0,0,2.37-.17,9,9,0,0,0,1.91-.53,8.4,8.4,0,0,0,1.63-.85,13.08,13.08,0,0,0,1.48-1.19,1.2,1.2,0,0,1,.17-.11A.35.35,0,0,1,514.8,122.09Z"/><path class="cls-8" d="M523.21,124.73h11.72v1.52H521.42V101.53h1.79Z"/><path class="cls-8" d="M560,113.88a15,15,0,0,1-.85,5.2,11.63,11.63,0,0,1-2.41,4,10.68,10.68,0,0,1-3.73,2.55,13.17,13.17,0,0,1-9.57,0,10.55,10.55,0,0,1-3.72-2.55,11.5,11.5,0,0,1-2.42-4,15.92,15.92,0,0,1,0-10.38,11.4,11.4,0,0,1,2.42-4,10.45,10.45,0,0,1,3.72-2.56,12.11,12.11,0,0,1,4.77-.91,12.37,12.37,0,0,1,4.8.9,10.58,10.58,0,0,1,3.73,2.56,11.58,11.58,0,0,1,2.41,4A14.93,14.93,0,0,1,560,113.88Zm-1.85,0a14.1,14.1,0,0,0-.72-4.65,10,10,0,0,0-2-3.49,8.71,8.71,0,0,0-3.14-2.2,10.65,10.65,0,0,0-4.07-.76,10.52,10.52,0,0,0-4,.76,8.8,8.8,0,0,0-3.14,2.2,9.89,9.89,0,0,0-2,3.49,15.41,15.41,0,0,0,0,9.31,9.84,9.84,0,0,0,2,3.48,8.65,8.65,0,0,0,3.14,2.19,10.52,10.52,0,0,0,4,.75,10.65,10.65,0,0,0,4.07-.75,8.57,8.57,0,0,0,3.14-2.19,9.92,9.92,0,0,0,2-3.48A14,14,0,0,0,558.1,113.88Z"/><path class="cls-8" d="M574.91,125a7.89,7.89,0,0,0,3.19-.62,6.93,6.93,0,0,0,2.39-1.73A7.61,7.61,0,0,0,582,120a9.92,9.92,0,0,0,.51-3.22V101.53h1.79v15.29a11,11,0,0,1-.65,3.81,9.07,9.07,0,0,1-1.86,3.1,8.55,8.55,0,0,1-2.95,2.07,10.54,10.54,0,0,1-7.81,0,8.59,8.59,0,0,1-3-2.07,9.07,9.07,0,0,1-1.86-3.1,11,11,0,0,1-.65-3.81V101.53h1.8V116.8a9.88,9.88,0,0,0,.52,3.22,7.59,7.59,0,0,0,1.49,2.6,6.8,6.8,0,0,0,2.37,1.73A7.73,7.73,0,0,0,574.91,125Z"/><path class="cls-8" d="M612.22,113.88a14.7,14.7,0,0,1-.86,5.16,11.08,11.08,0,0,1-2.41,3.89,10.54,10.54,0,0,1-3.72,2.47,13,13,0,0,1-4.81.85h-9V101.53h9a13,13,0,0,1,4.81.85,10.41,10.41,0,0,1,3.72,2.47,11.08,11.08,0,0,1,2.41,3.89A14.62,14.62,0,0,1,612.22,113.88Zm-1.85,0a13.73,13.73,0,0,0-.72-4.61,9.71,9.71,0,0,0-2-3.43,8.58,8.58,0,0,0-3.14-2.13,10.84,10.84,0,0,0-4.07-.73h-7.21V124.8h7.21a10.84,10.84,0,0,0,4.07-.73,8.58,8.58,0,0,0,3.14-2.13,9.8,9.8,0,0,0,2-3.43A13.77,13.77,0,0,0,610.37,113.88Z"/></svg>