<svg xmlns="http://www.w3.org/2000/svg" width="64" height="51" viewBox="0 0 64 51">
    <g fill="none" fill-rule="evenodd">
        <path d="M0-7h64v64H0z"/>
        <path fill="#6EB9F7" d="M61.333 10.667c1.6 0 2.667 1.066 2.667 2.666V48c0 1.6-1.067 2.667-2.667 2.667H2.667C1.067 50.667 0 49.6 0 48V2.667C0 1.067 1.067 0 2.667 0H24c.8 0 1.6.267 2.133 1.067l7.2 9.6h28zM43.061 38.939l-5.733-5.733a9.028 9.028 0 1 0-2.122 2.122l5.733 5.733 2.122-2.122zM23 28a7 7 0 1 1 7 7 7.008 7.008 0 0 1-7-7z"/>
    </g>
</svg>
