<svg xmlns="http://www.w3.org/2000/svg" width="24" height="24" viewBox="0 0 24 24">
    <g fill="none" fill-rule="evenodd">
        <path d="M0 0H24V24H0z"/>
        <g fill="#111" fill-opacity=".7" fill-rule="nonzero" transform="translate(2 2)">
            <path d="M17.5 3.333h-4.167v-2.5L9.167 4.167 13.333 7.5V5h3.334v3.333h1.666V4.167c0-.46-.373-.834-.833-.834zM6.667 15H3.333v-3.333H1.667v4.166c0 .46.373.834.833.834h4.167v2.5l4.166-3.334L6.667 12.5V15z"/>
            <circle cx="4.167" cy="2.5" r="2.5"/>
            <path d="M8.333 9.167H0v-.904c0-.545.263-1.054.71-1.365.682-.477 1.85-1.065 3.457-1.065 1.607 0 2.775.588 3.457 1.064.447.313.71.822.71 1.366v.904z"/>
            <circle cx="15.833" cy="13.333" r="2.5"/>
            <path d="M20 20h-8.333v-.903c0-.545.262-1.055.709-1.366.682-.477 1.85-1.064 3.457-1.064 1.608 0 2.775.587 3.458 1.064.447.312.709.821.709 1.366V20z"/>
        </g>
    </g>
</svg>
