<svg xmlns="http://www.w3.org/2000/svg" width="16" height="16" viewBox="0 0 24 24">
    <g fill="none" fill-rule="evenodd" opacity="1">
        <g fill-rule="nonzero">
            <g transform="translate(-378 -24) translate(378 24)">
                <rect width="24" height="24" rx="1"/>
                <g fill="white">
                    <path d="M17.1 9H5.4V5.319c.023-1.951 1.612-3.52 3.563-3.519h.118c1.962.022 3.536 1.629 3.519 3.591l1.8.018C14.425 2.45 12.049.029 9.09 0h-.081C7.586-.017 6.216.534 5.201 1.53 4.186 2.528 3.609 3.888 3.6 5.31V9H.9c-.497 0-.9.403-.9.9v10.8c0 .497.403.9.9.9h16.2c.497 0 .9-.403.9-.9V9.9c0-.497-.403-.9-.9-.9zM9 17.1c-.994 0-1.8-.806-1.8-1.8s.806-1.8 1.8-1.8 1.8.806 1.8 1.8-.806 1.8-1.8 1.8z" transform="translate(3 1)"/>
                </g>
            </g>
        </g>
    </g>
</svg>
