<svg xmlns="http://www.w3.org/2000/svg" width="19" height="20" viewBox="0 0 19 20">
    <g fill="none" fill-rule="evenodd">
        <path d="M-3-2h24v24H-3z"/>
        <g fill="#111" fill-opacity=".7" fill-rule="nonzero">
            <path d="M7.435 10c-2.281 0-4.13-2.7-4.13-5v-.833C3.304 1.866 5.153 0 7.434 0c2.28 0 4.13 1.866 4.13 4.167V5c0 2.3-1.85 5-4.13 5zM9.913 18.33a2.5 2.5 0 0 1 .725-1.766l3.385-3.414a2.421 2.421 0 0 0-.827-.49c-1.359-.462-3.428-.993-5.761-.993s-4.402.531-5.761.994A2.49 2.49 0 0 0 0 15.027v3.306h9.913v-.002zM16.59 12.917l-4.783 4.825a.836.836 0 0 0-.242.589v1.666h1.652a.822.822 0 0 0 .584-.244l4.783-4.825a1.43 1.43 0 0 0 0-2.011 1.4 1.4 0 0 0-1.994 0z"/>
        </g>
    </g>
</svg>
