<svg xmlns="http://www.w3.org/2000/svg" width="24" height="24" viewBox="0 0 24 24">
    <g fill="none" fill-rule="evenodd">
        <path d="M0 0H24V24H0z"/>
        <g>
            <path fill="#F5C842" d="M23 4.21H12.5L9.8.422C9.6.105 9.3 0 9 0H1C.4 0 0 .421 0 1.053v17.894C0 19.58.4 20 1 20h22c.6 0 1-.421 1-1.053V5.263c0-.631-.4-1.052-1-1.052z" transform="translate(0 2)"/>
            <path fill="#C7AA3D" fill-rule="nonzero" d="M6.164 16.11l1.05-4.498 1.06 4.497H9.89L11.433 9H9.865l-.893 4.849L7.888 9H6.545l-1.08 4.849L4.573 9H3l1.548 7.11h1.616zm7.69 0V9h-1.582v7.11h1.582zm2.872 0v-2.442h1.22c.557 0 1.039-.094 1.446-.28.407-.188.719-.453.937-.797.218-.343.327-.743.327-1.198 0-.463-.109-.874-.327-1.236-.218-.361-.532-.644-.942-.85-.41-.204-.89-.307-1.44-.307h-2.808v7.11h1.587zm1.22-3.721h-1.22v-2.11h1.22c.25 0 .46.052.625.154.166.103.288.239.366.408.079.17.118.356.118.561 0 .303-.091.543-.274.72-.182.178-.46.267-.835.267z" transform="translate(0 2)"/>
        </g>
    </g>
</svg>
