<svg xmlns="http://www.w3.org/2000/svg" width="24" height="24" viewBox="0 0 24 24">
    <g fill="#4A4A4A" fill-opacity=".25" fill-rule="evenodd">
        <path d="M22.491 2.727H9.874a.547.547 0 0 0-.548.546c0 .301.245.545.548.545h12.617a.547.547 0 0 0 .549-.545.547.547 0 0 0-.549-.546zM22.766 11.52H10.149a.547.547 0 0 0-.549.545c0 .302.246.546.549.546h12.617a.547.547 0 0 0 .548-.546.547.547 0 0 0-.548-.545zM22.491 20.182H9.874a.547.547 0 0 0-.548.545c0 .302.245.546.548.546h12.617a.547.547 0 0 0 .549-.546.547.547 0 0 0-.549-.545z"/>
        <rect width="6.583" height="6.545" rx=".549"/>
        <rect width="6.583" height="6.545" y="8.64" rx=".549"/>
        <rect width="6.583" height="6.545" y="17.455" rx=".549"/>
    </g>
</svg>
