<svg xmlns="http://www.w3.org/2000/svg" width="20" height="12" viewBox="0 0 20 12">
    <g fill="none" fill-rule="evenodd" transform="translate(0 -2)">
        <path d="M0 0h20v19H0z"/>
        <path fill="#111" d="M8.116 10.188a5.617 5.617 0 0 0-3.6-1.266 5.617 5.617 0 0 0-3.599 1.265A2.527 2.527 0 0 0 0 12.16v1.827h9.032v-1.827c0-.78-.334-1.499-.916-1.973z"/>
        <ellipse cx="4.839" cy="5.438" fill="#111" rx="2.903" ry="2.85"/>
        <path fill="#111" d="M19.084 10.188a5.617 5.617 0 0 0-3.6-1.266 5.617 5.617 0 0 0-3.6 1.265 2.527 2.527 0 0 0-.916 1.974v1.827H20v-1.827c0-.78-.334-1.499-.916-1.973z"/>
        <ellipse cx="15.161" cy="5.438" fill="#111" rx="2.903" ry="2.85"/>
    </g>
</svg>
