<svg xmlns="http://www.w3.org/2000/svg" width="20" height="20" viewBox="0 0 20 20">
    <g fill="none" fill-rule="evenodd">
        <path d="M0 0h20v19H0z"/>
        <g fill="#111">
            <path d="M6.857 8.571c0-.947.767-1.714 1.714-1.714H12V2.571a.857.857 0 0 0-.857-.857H6.355L4.892.251A.856.856 0 0 0 4.286 0H.857A.857.857 0 0 0 0 .857v10.286c0 .473.384.857.857.857h6V8.571z"/>
            <path d="M19.143 9.714h-4.788l-1.463-1.463A.853.853 0 0 0 12.286 8H8.857A.857.857 0 0 0 8 8.857v10.286c0 .473.383.857.857.857h10.286a.857.857 0 0 0 .857-.857V10.57a.857.857 0 0 0-.857-.857z"/>
        </g>
    </g>
</svg>
